PathFileType	4	(X/Y/Z)	E:\Qualisys_Data\Carbon_Farble_Plate\Data\Amateur_Runner\S2\T1\S2T1V12_c3d.trc
DataRate	CameraRate	NumFrames	NumMarkers	Units	OrigDataRate	OrigDataStartFrame	OrigNumFrames
200.000000	200.000000	5	39	mm	200.000000	200	320
Frame#	Time	LSHO			RSHO			LICST			RICST			LASIS			LHEEL			RASIS			LTROC			RTROC			SACR			LTH1			LSK4			LTH2			LTH3			RHM5			LSK2			LTH4			RTH1			LTOE			RTH2			RTH3			RTH4			LLEP			RLEP			LSK1			LSK3			RSK1			LHM5			RSK2			LFT1			RSK3			RSK4			LLME			RLME			RTOE			RHEEL			RFT1			RFT2			LFT2			
		X1	Y1	Z1	X2	Y2	Z2	X3	Y3	Z3	X4	Y4	Z4	X5	Y5	Z5	X6	Y6	Z6	X7	Y7	Z7	X8	Y8	Z8	X9	Y9	Z9	X10	Y10	Z10	X11	Y11	Z11	X12	Y12	Z12	X13	Y13	Z13	X14	Y14	Z14	X15	Y15	Z15	X16	Y16	Z16	X17	Y17	Z17	X18	Y18	Z18	X19	Y19	Z19	X20	Y20	Z20	X21	Y21	Z21	X22	Y22	Z22	X23	Y23	Z23	X24	Y24	Z24	X25	Y25	Z25	X26	Y26	Z26	X27	Y27	Z27	X28	Y28	Z28	X29	Y29	Z29	X30	Y30	Z30	X31	Y31	Z31	X32	Y32	Z32	X33	Y33	Z33	X34	Y34	Z34	X35	Y35	Z35	X36	Y36	Z36	X37	Y37	Z37	X38	Y38	Z38	X39	Y39	Z39	

201	1.0	903.2431030273438	1464.074096679688	-400.568115234375	956.500244140625	1434.129516601562	-89.1363525390625	861.3112182617188	1007.619262695312	-401.8985290527344	875.1640014648438	983.815673828125	-100.3073196411133	919.2094116210938	957.4794311523438	-383.4310607910156	677.9760131835938	310.0220642089844	-301.7719116210938	929.847900390625	935.5991821289062	-124.3996200561523	801.478759765625	881.3438110351562	-411.876220703125	772.9371948242188	893.0464477539062	-104.4657135009766	778.2169189453125	1039.471069335938	-242.5442504882812	1021.580139160156	695.4070434570312	-407.6622314453125	836.0955200195312	422.7801818847656	-384.4559631347656	946.5971069335938	658.3355102539062	-416.8880310058594	1063.259521484375	603.1117553710938	-386.5917358398438	598.4230346679688	60.31109237670898	-130.3339385986328	913.563232421875	485.4916687011719	-397.3373107910156	985.75048828125	567.8418579101562	-391.987060546875	844.0348510742188	616.9326171875	-101.8566131591797	842.10205078125	131.8167877197266	-333.884033203125	768.9730224609375	638.5972900390625	-100.2498092651367	815.3577270507812	521.0919189453125	-126.2517852783203	739.2110595703125	547.1111450195312	-118.1690216064453	1030.113159179688	538.6177368164062	-389.3031921386719	753.6948852539062	502.2615966796875	-115.5910797119141	962.8416748046876	424.2289123535156	-390.1994934082031	885.1505737304688	361.3857421875	-381.1969909667969	719.6754150390625	380.1389770507812	-116.7341766357422	788.9591064453125	157.1179046630859	-393.8875122070312	653.060302734375	424.2095031738281	-107.8875198364258	672.3889770507812	283.6133422851562	-272.5686340332031	663.9649047851562	295.3564453125	-128.4443359375	599.364501953125	341.6232299804688	-122.4043350219727	725.2365112304688	279.2027282714844	-360.1507568359375	525.8480224609375	165.142333984375	-159.330810546875	653.3013305664062	51.64113616943359	-194.3905181884766	462.2937316894531	179.5670166015625	-217.8791809082031	465.0416564941406	149.0979461669922	-248.9903411865234	450.8749084472656	158.3721008300781	-192.9549713134766	658.8294677734375	289.6377258300781	-325.3638610839844
202	1.005	917.627197265625	1468.428344726562	-400.6650695800781	973.8314819335938	1439.145629882812	-90.0534896850586	878.2264404296875	1012.637268066406	-401.5492553710938	893.7045288085938	987.4452514648438	-100.8429870605469	936.3253173828124	962.1749267578124	-383.6009521484375	705.8607788085938	299.1246337890625	-299.0267333984375	947.971923828125	939.1097412109376	-125.1272964477539	819.0025634765625	886.52685546875	-412.6599426269531	790.5994873046875	898.1104125976562	-104.0798721313477	796.1510620117188	1043.876831054688	-241.9284057617188	1039.836303710938	700.3289794921875	-406.6368408203125	858.1822509765625	418.8343505859375	-383.1193237304688	965.28759765625	663.536865234375	-417.0126647949219	1081.484497070312	608.280517578125	-385.5501098632812	599.0428466796875	60.7294921875	-129.5059814453125	933.0703125	484.6634521484375	-396.5758972167969	1004.670715332031	573.1851196289062	-392.2081909179688	856.8173217773438	621.343994140625	-101.6034317016602	877.3588256835938	128.9635925292969	-333.0735168457031	782.1346435546875	644.5225830078125	-98.89784240722656	826.2107543945312	526.5206298828125	-124.5571365356445	750.5648803710938	553.3107299804688	-117.276123046875	1048.558837890625	542.9358520507812	-388.31884765625	763.7470703125	508.0203247070312	-114.0594253540039	984.6109008789062	425.9591979980469	-389.3392028808594	909.957763671875	359.9608764648438	-379.891845703125	727.7872924804688	387.3409423828125	-113.9415435791016	822.8358764648438	151.8476715087891	-392.5150756835938	660.9759521484375	431.2918395996094	-106.1480178833008	701.1891479492188	272.243896484375	-270.6409606933594	672.3649291992188	302.1432189941406	-125.7528533935547	607.18896484375	348.5838317871094	-120.4999694824219	753.6944580078125	270.6965026855469	-357.9209289550781	533.5563354492188	171.1692047119141	-156.9603576660156	655.7179565429688	51.95628356933594	-193.0344848632812	471.8643798828125	188.4990997314453	-215.7940216064453	473.4702453613281	158.826416015625	-247.6505126953125	459.3087158203125	167.4032897949219	-191.5130920410156	686.7760009765625	277.6452026367188	-322.8349609375
203	1.01	932.1923217773438	1472.73388671875	-400.3275146484375	990.9935913085938	1443.351806640625	-91.33370208740234	895.5623168945312	1017.320068359375	-401.7320556640625	912.4796142578124	991.5567626953124	-101.2337036132812	952.9597778320312	966.6159057617188	-383.960693359375	733.57373046875	288.3906555175781	-296.8664245605469	965.9214477539062	942.93017578125	-125.9931793212891	836.3054809570312	891.2655029296875	-412.97802734375	808.3383178710938	902.8899536132812	-103.8154296875	813.7695922851562	1048.159790039062	-241.4093017578125	1058.337890625	705.261474609375	-405.9467468261719	880.232421875	414.8214416503906	-381.7548828125	984.0673217773438	668.2731323242188	-416.9016723632812	1099.995483398438	613.3084106445312	-383.3292541503906	602.136962890625	62.21000671386719	-127.9789276123047	952.1494750976562	483.7217102050781	-395.8845825195312	1023.1298828125	578.1320190429688	-392.0601196289062	869.6343383789062	625.7064819335938	-101.1365280151367	913.0033569335938	126.6349182128906	-331.9182434082031	795.4970703125	650.2295532226562	-97.72004699707033	837.1845703125	531.8090209960938	-123.1399688720703	761.6873168945312	559.8058471679688	-115.5633163452148	1066.301025390625	547.4929809570312	-387.4181518554688	773.9130859375	513.9793090820312	-112.5207366943359	1006.353698730469	427.1686401367188	-388.1689453125	934.5924682617188	357.8484191894531	-378.5963439941406	736.0866088867188	394.1385803222656	-112.1398315429688	856.6571655273438	146.7669372558594	-391.2802124023438	669.2470092773438	438.3507690429688	-104.6878967285156	730.2595825195312	260.9765930175781	-268.4027404785156	680.75244140625	309.0830383300781	-122.8690490722656	615.6705322265625	355.3153076171875	-119.2141876220703	782.4302978515625	262.0967407226562	-355.6651000976562	541.9736328125	176.9774017333984	-154.2555084228516	658.4442749023438	52.03214263916016	-191.6653442382812	481.7731323242188	197.4222259521484	-213.8992004394531	482.6361083984375	168.7355346679688	-246.0383453369141	468.4732055664062	177.0418853759766	-189.7949066162109	715.53857421875	266.4854431152344	-320.650146484375
204	1.015	947.1865234375	1476.85986328125	-400.1791381835938	1008.655639648438	1448.201782226562	-92.30763244628906	912.74169921875	1021.986877441406	-401.5726623535156	930.9487915039062	995.3560791015624	-101.4934005737305	969.8706665039062	970.788330078125	-383.9320373535156	761.7216186523438	277.9309692382812	-294.4568176269531	984.41796875	946.2652587890624	-126.9059524536133	853.4861450195312	895.9055786132812	-413.8753051757812	825.8341674804688	908.1641845703124	-103.3663101196289	831.188720703125	1052.047607421875	-240.9799194335938	1076.605834960938	709.4678955078125	-405.1296997070312	902.4669189453124	410.8195190429688	-380.5663452148438	1002.299743652344	672.6810302734375	-416.8203735351562	1118.238037109375	617.9470825195312	-382.3435974121094	605.05810546875	63.24897766113281	-126.8385696411133	971.2785034179688	482.5588684082031	-394.9451904296875	1041.12939453125	582.2633666992188	-391.7930603027344	882.6875	630.1709594726562	-100.3790512084961	948.4951171875	124.5942764282227	-331.5685729980469	808.9304809570312	655.6704711914062	-96.54869842529295	848.0171508789062	536.0130615234375	-122.7924499511719	773.3765258789062	566.2279663085938	-113.8577194213867	1083.672241210938	551.4723510742188	-386.3600769042969	784.1000366210938	520.1884765625	-111.1561660766602	1028.05126953125	428.4299621582031	-387.6222839355469	959.2493286132812	356.128662109375	-377.3590393066406	745.0787353515625	401.4494323730469	-109.7907485961914	890.6026000976562	141.8030090332031	-389.8085021972656	678.1524047851562	445.5033874511719	-102.6553421020508	759.8599243164062	249.7135620117188	-266.2201538085938	689.4429931640625	316.0515441894531	-120.0182037353516	624.8692016601562	362.0879211425781	-116.7250518798828	811.1182250976562	253.7028961181641	-354.2821655273438	550.6146240234375	182.5470123291016	-152.150634765625	661.5924072265625	52.20383834838867	-189.9786987304688	492.9024963378906	206.8898010253906	-211.5129852294922	493.141845703125	178.2448272705078	-244.3609619140625	475.8345947265625	186.2924194335938	-189.0809173583984	744.4859008789062	254.5792388916016	-318.0229797363281
205	1.02	962.1265258789062	1480.760620117188	-400.2941284179688	1025.625854492188	1452.390014648438	-93.57891082763672	929.5067138671876	1026.318359375	-401.5534057617188	949.302978515625	998.9478149414062	-102.4081649780273	987.0721435546876	975.1932373046876	-384.1944885253906	790.590087890625	266.8499755859375	-291.555908203125	1002.356201171875	949.6756591796876	-127.3543701171875	870.6117553710938	900.6189575195312	-414.4450073242188	843.573974609375	913.1847534179688	-102.8062515258789	848.7489013671875	1056.397827148438	-241.3996429443359	1094.670288085938	713.681396484375	-404.2803344726562	924.8893432617188	406.123779296875	-378.8767395019531	1020.464111328125	677.149169921875	-416.999267578125	1135.573608398438	621.4229125976562	-381.3302917480469	608.6942749023438	64.95146179199219	-125.2579574584961	990.2196044921876	480.9249267578125	-394.1633911132812	1058.847534179688	586.7066650390625	-391.3564758300781	895.3128662109375	634.1284790039062	-99.60918426513672	983.5865478515624	122.6406173706055	-330.8738098144531	822.2454833984375	661.5106811523438	-95.0007095336914	859.0661010742188	540.9669799804688	-121.0088806152344	784.6718139648438	572.3281860351562	-112.7247543334961	1100.933227539062	554.76708984375	-385.6748352050781	794.4013671875	525.8732299804688	-110.0536804199219	1049.251098632812	429.7108154296875	-387.218994140625	983.5221557617188	354.2728881835938	-376.1261901855469	754.16796875	408.2562561035156	-107.8505249023438	924.548095703125	137.2893676757812	-388.6171875	687.2445678710938	452.3559265136719	-101.5095901489258	790.2136840820312	238.9499359130859	-263.6711120605469	699.6370849609375	322.9585571289062	-116.9531326293945	634.0943603515625	368.8057556152344	-115.4818420410156	840.3678588867188	245.2289276123047	-352.0907897949219	560.1036987304688	188.2766571044922	-149.6708068847656	665.0595092773438	51.66730880737305	-188.8473663330078	507.3067321777344	216.2923431396484	-208.1595458984375	503.5001525878906	188.5185394287109	-242.0295867919922	486.1875610351562	195.7103729248047	-187.0007629394531	774.0618896484375	242.3696136474609	-314.8587036132812
